# xmcd
#
# Track frame offsets:
#	150
#	14179
#	26466
#	37193
#	47688
#	60218
#	71660
#	81926
#	92647
#	103452
#	118602
#	130994
#	141319
#	153545
#	166881
#	178766
#
# Disc length: 2564 seconds
#
# Revision: 1
# Processed by: cddbd v1.5.2PL0 Copyright (c) Steve Scherf et al.
# Submitted via: audiograbber 1.83.01
#
DISCID=e40a0210
DTITLE=Kris Kristofferson - The Complete Monument and Columbia Albums Collection 
DTITLE=(CD 16) - Demos [remastered 2016]
DYEAR=2016
DGENRE=Singer/Songwriter
TTITLE0=Gypsy Rose And I Don't Give A Curse
TTITLE1=I Believe That I Believe
TTITLE2=Born To Die Alone
TTITLE3=The Hurricane And The Helicopter
TTITLE4=Bread For The Body (And Food For The Soul)
TTITLE5=I Can Be Had
TTITLE6=The Table, The Glass, The Wine
TTITLE7=A Stitch In The Hand
TTITLE8=File It Under Sick And Wrong
TTITLE9=Where She Stops Nobody Knows
TTITLE10=Lonesome Way Of Dying
TTITLE11=Good For Nothing Blues
TTITLE12=Fallen Woman
TTITLE13=No One's Gonna Miss Me
TTITLE14=Hitting Close To Home
TTITLE15=Nobody Owns My Soul
EXTD=
EXTT0=
EXTT1=
EXTT2=
EXTT3=
EXTT4=
EXTT5=
EXTT6=
EXTT7=
EXTT8=
EXTT9=
EXTT10=
EXTT11=
EXTT12=
EXTT13=
EXTT14=
EXTT15=
PLAYORDER=
